<?xml version="1.0" encoding="utf-8"?>
<!-- Generator: Adobe Illustrator 22.0.0, SVG Export Plug-In . SVG Version: 6.00 Build 0)  -->
<svg version="1.1" id="Layer_1" xmlns="http://www.w3.org/2000/svg" xmlns:xlink="http://www.w3.org/1999/xlink" x="0px" y="0px"
	 viewBox="0 0 155.4 161.7" style="enable-background:new 0 0 155.4 161.7;" xml:space="preserve">
<style type="text/css">
	.st0{fill:#08304A;}
	.st1{fill:#D72334;}
</style>
<g>
	<path class="st0" d="M83.2,63.6c-7.6-14.2-15.2-28.3-23-42.9c-0.8,1.5-1.4,2.6-2,3.7C45.4,50.4,32.7,76.5,20,102.6
		c-1,2-2.3,3.4-4.2,4.5c-4.2,2.2-8.3,4.6-12.4,6.9c-1,0.6-2,1.5-3.3,1.2C7.9,97.4,15.7,79.7,23.5,62c8.3-18.9,16.7-37.8,24.9-56.8
		c1-2.3,2.3-3.5,4.8-3.7c5-0.3,10-0.8,14.9-1.5c2.3-0.3,2.7,1.3,3.6,2.6c10.5,15.6,21,31.3,31.5,46.9C96.8,54.5,90.1,59.2,83.2,63.6
		z"/>
	<path class="st0" d="M110.4,60.3c14.4,21.6,28.8,43.1,43.3,64.6c1.4,2,1.5,3.5,0.2,5.6c-5.9,10.1-11.6,20.4-17.7,31.1
		c-16.5-30.5-32.7-60.5-49-90.6C94.9,67.1,102.6,63.5,110.4,60.3z"/>
	<path class="st1" d="M110.4,60.3c-7.9,3.2-15.5,6.9-23.1,10.8c-11,5.1-22,10.1-33.1,15.2c-1.3,0.6-2.7,1.2-4.1,1.8
		c-0.2-0.2-0.3-0.4-0.5-0.6c10.1-7.1,20.1-14.2,30.2-21.3c1.1-0.8,2.1-1.7,3.2-2.5c6.9-4.4,13.6-9,20.1-14
		c9.5-6.5,18.9-13,28.4-19.5c1.5-1,1-1.8,0.3-3c-2.9-4.5-5.7-9.1-8.7-13.6c-1.2-1.7-1.1-2.6,0.8-3.7c4.5-2.7,8.9-5.6,13.2-8.6
		c1.9-1.3,2.7-0.7,3.7,1c2.6,4.4,5.3,8.7,8.2,13c1.3,1.9,1.2,2.8-0.8,4.1c-4.9,3-9.7,6.2-15.2,9.8c7.6,3.4,14.6,6.5,22.2,9.9
		C140,46.2,125.2,53.3,110.4,60.3z"/>
	<path class="st1" d="M50.2,88c-0.6,0.3-1.2,0.6-1.7-0.2c0.4-0.2,0.8-0.3,1.2-0.5C49.9,87.6,50.1,87.8,50.2,88z"/>
</g>
</svg>
